<svg width="835" height="476" viewBox="0 0 835 476" fill="none" xmlns="http://www.w3.org/2000/svg">
<g clip-path="url(#clip0_0_5)">
<g clip-path="url(#clip1_0_5)">
<g clip-path="url(#clip2_0_5)">
<g clip-path="url(#clip3_0_5)">
<g clip-path="url(#clip4_0_5)">
<g clip-path="url(#clip5_0_5)">
<g clip-path="url(#clip6_0_5)">
<path d="M7.70799 405.285L4.7734 410.421H1.54535V385.183H5.21359C9.02856 398.976 15.9738 405.872 26.0492 405.872C29.962 405.872 33.0727 404.913 35.3812 402.996C37.6702 401.099 38.8147 398.193 38.8147 394.28C38.8147 392.813 38.5995 391.561 38.1691 390.524C37.7191 389.507 36.8876 388.431 35.6747 387.296C34.4421 386.181 32.7303 384.89 30.5391 383.422C28.3284 381.955 25.4134 380.097 21.794 377.847C18.4682 375.793 15.5825 373.885 13.137 372.124C10.6915 370.364 8.63728 368.573 6.97435 366.754C5.31141 364.954 4.0691 363.027 3.24741 360.973C2.40616 358.919 1.98554 356.522 1.98554 353.783C1.98554 350.457 2.55289 347.395 3.6876 344.598C4.80275 341.82 6.33852 339.452 8.29491 337.496C10.2513 335.54 12.5501 333.994 15.1912 332.859C17.8323 331.744 20.718 331.187 23.8483 331.187C26.4894 331.187 29.2283 331.598 32.0651 332.419C34.9019 333.26 37.3963 334.366 39.5483 335.735L42.4829 332.654H45.2708V353.783H41.4558C39.3038 347.816 36.9561 343.561 34.4128 341.018C31.8695 338.474 28.7392 337.203 25.0221 337.203C21.6962 337.203 19.0257 338.083 17.0107 339.844C15.0151 341.605 14.0174 344.05 14.0174 347.18C14.0174 348.843 14.2913 350.281 14.8391 351.494C15.3673 352.727 16.2183 353.93 17.3922 355.104C18.566 356.277 20.0626 357.471 21.8821 358.684C23.682 359.916 25.8536 361.315 28.3969 362.88C32.6031 365.521 36.2029 367.869 39.1962 369.923C42.1699 371.978 44.586 374.002 46.4446 375.998C48.3032 378.013 49.6727 380.097 50.553 382.249C51.4334 384.401 51.8736 386.846 51.8736 389.585C51.8736 396.53 49.6238 401.979 45.1241 405.931C40.6243 409.902 34.7062 411.888 27.3698 411.888C19.7398 411.888 13.1859 409.687 7.70799 405.285ZM130.814 392.666L135.363 396.775C127.048 406.85 116.728 411.888 104.403 411.888C98.6315 411.888 93.3981 410.929 88.7028 409.012C84.0074 407.114 79.9674 404.424 76.5829 400.942C73.2179 397.479 70.6061 393.322 68.7475 388.47C66.8889 383.638 65.9597 378.287 65.9597 372.418C65.9597 366.451 66.9379 360.924 68.8942 355.837C70.8506 350.751 73.6092 346.398 77.1698 342.778C80.75 339.159 85.0052 336.322 89.9353 334.268C94.885 332.214 100.294 331.187 106.164 331.187C115.652 331.187 122.989 333.75 128.173 338.875C133.357 344.021 135.95 351.386 135.95 360.973C135.95 362.342 135.676 363.174 135.128 363.467C134.6 363.761 133.357 363.907 131.401 363.907H83.127C82.9314 364.69 82.7847 365.639 82.6868 366.754C82.589 367.889 82.5401 369.141 82.5401 370.51C82.5401 375.597 83.1466 380.214 84.3596 384.362C85.5921 388.529 87.3528 392.08 89.6418 395.014C91.9504 397.949 94.6893 400.218 97.8587 401.822C101.048 403.446 104.598 404.258 108.511 404.258C112.62 404.258 116.435 403.348 119.956 401.529C123.478 399.729 127.097 396.775 130.814 392.666ZM84.1541 357.158H111.152C113.109 357.158 114.674 357.109 115.848 357.011C117.022 356.913 117.902 356.718 118.489 356.424C119.076 356.131 119.467 355.72 119.663 355.192C119.858 354.644 119.956 353.93 119.956 353.049C119.956 348.55 118.508 344.95 115.613 342.25C112.737 339.57 108.805 338.23 103.816 338.23C93.2514 338.23 86.6974 344.539 84.1541 357.158ZM212.689 393.987L217.091 398.242C213.55 402.546 209.001 405.892 203.445 408.278C197.87 410.685 191.844 411.888 185.368 411.888C180.203 411.888 175.44 410.929 171.077 409.012C166.734 407.114 162.997 404.424 159.867 400.942C156.736 397.479 154.31 393.302 152.589 388.411C150.887 383.52 150.036 378.091 150.036 372.124C150.036 365.864 151.014 360.22 152.97 355.192C154.927 350.144 157.685 345.83 161.246 342.25C164.826 338.689 169.13 335.951 174.158 334.033C179.186 332.136 184.742 331.187 190.827 331.187C194.642 331.187 198.114 331.5 201.244 332.126C204.355 332.771 207.065 333.652 209.373 334.767C211.682 335.902 213.462 337.271 214.714 338.875C216.005 340.499 216.651 342.24 216.651 344.099C216.651 346.055 216.005 347.572 214.714 348.648C213.462 349.724 211.711 350.262 209.461 350.262C207.701 350.262 206.233 349.89 205.059 349.146C203.886 348.423 202.369 346.789 200.511 344.246C198.554 341.996 196.666 340.401 194.847 339.462C193.047 338.543 190.729 338.083 187.892 338.083C180.947 338.083 175.684 340.773 172.104 346.153C168.543 351.533 166.763 359.457 166.763 369.923C166.763 381.173 168.739 389.702 172.691 395.513C176.662 401.343 182.463 404.258 190.093 404.258C194.201 404.258 198.065 403.446 201.685 401.822C205.304 400.218 208.972 397.606 212.689 393.987ZM289.4 370.51V356.131C289.4 352.12 289.302 348.961 289.106 346.652C288.91 344.363 288.402 342.602 287.58 341.37C286.739 340.157 285.516 339.325 283.912 338.875C282.288 338.445 280.058 338.083 277.221 337.79V332.654H303.779V377.7C303.779 383.276 303.857 387.824 304.014 391.346C304.151 394.867 304.366 397.509 304.659 399.269C304.855 400.541 305.178 401.539 305.628 402.263C306.058 403.006 306.714 403.593 307.594 404.023C308.474 404.473 309.629 404.767 311.057 404.904C312.465 405.06 314.295 405.138 316.545 405.138V410.274L292.334 412.035L290.72 394.427H290.133C286.416 400.492 282.141 404.913 277.309 407.692C272.457 410.489 267.39 411.888 262.108 411.888C257.999 411.888 254.018 411.105 250.164 409.54C246.29 407.975 243.375 405.872 241.419 403.231C239.756 401.079 238.563 398.095 237.839 394.28C237.095 390.465 236.724 385.526 236.724 379.461V356.131C236.724 352.12 236.626 348.961 236.43 346.652C236.235 344.363 235.726 342.602 234.904 341.37C234.063 340.157 232.84 339.325 231.236 338.875C229.612 338.445 227.382 338.083 224.545 337.79V332.654H251.103V372.711C251.103 383.374 252.355 391.101 254.859 395.894C257.344 400.688 261.325 403.084 266.803 403.084C275.411 403.084 282.112 397.46 286.905 386.21C287.394 385.037 287.786 383.96 288.079 382.982C288.372 382.004 288.617 380.928 288.813 379.754C289.008 378.58 289.155 377.26 289.253 375.793C289.351 374.325 289.4 372.564 289.4 370.51ZM352.347 382.102V387.091C352.347 391.101 352.444 394.28 352.64 396.628C352.836 398.976 353.354 400.756 354.195 401.969C355.017 403.202 356.21 404.014 357.776 404.405C359.341 404.796 361.542 405.09 364.378 405.285V410.421H325.348V405.285C328.185 405.187 330.435 404.923 332.098 404.493C333.761 404.043 335.032 403.231 335.913 402.057C336.793 400.883 337.361 399.191 337.615 396.98C337.85 394.789 337.967 391.835 337.967 388.118V370.95C337.967 364.299 337.899 359.114 337.762 355.397C337.605 351.68 337.116 348.941 336.294 347.18C335.453 345.419 334.152 344.363 332.391 344.011C330.631 343.678 328.185 343.512 325.055 343.512V338.376L350.733 332.801L352.787 350.995H353.374C354.645 348.061 356.24 345.371 358.157 342.925C360.055 340.48 362.129 338.396 364.378 336.674C366.628 334.972 368.976 333.632 371.421 332.654C373.867 331.676 376.361 331.187 378.905 331.187C382.035 331.187 384.51 331.94 386.329 333.446C388.129 334.972 389.029 337.007 389.029 339.55C389.029 341.898 388.295 343.727 386.828 345.038C385.361 346.368 383.258 347.034 380.519 347.034C378.954 347.034 377.633 346.838 376.557 346.447C375.481 346.055 374.532 345.635 373.71 345.185C372.869 344.754 372.087 344.343 371.363 343.952C370.619 343.561 369.807 343.365 368.927 343.365C366.286 343.365 363.645 345.048 361.004 348.413C358.362 351.797 356.308 356.082 354.841 361.266C354.058 364.103 353.452 367.302 353.022 370.862C352.572 374.443 352.347 378.189 352.347 382.102ZM460.193 392.666L464.741 396.775C456.427 406.85 446.107 411.888 433.782 411.888C428.01 411.888 422.777 410.929 418.081 409.012C413.386 407.114 409.346 404.424 405.962 400.942C402.597 397.479 399.985 393.322 398.126 388.47C396.268 383.638 395.338 378.287 395.338 372.418C395.338 366.451 396.317 360.924 398.273 355.837C400.229 350.751 402.988 346.398 406.549 342.778C410.129 339.159 414.384 336.322 419.314 334.268C424.264 332.214 429.673 331.187 435.542 331.187C445.031 331.187 452.367 333.75 457.552 338.875C462.736 344.021 465.328 351.386 465.328 360.973C465.328 362.342 465.055 363.174 464.507 363.467C463.978 363.761 462.736 363.907 460.78 363.907H412.506C412.31 364.69 412.163 365.639 412.066 366.754C411.968 367.889 411.919 369.141 411.919 370.51C411.919 375.597 412.525 380.214 413.738 384.362C414.971 388.529 416.732 392.08 419.021 395.014C421.329 397.949 424.068 400.218 427.237 401.822C430.426 403.446 433.977 404.258 437.89 404.258C441.998 404.258 445.813 403.348 449.335 401.529C452.856 399.729 456.476 396.775 460.193 392.666ZM413.533 357.158H440.531C442.487 357.158 444.053 357.109 445.226 357.011C446.4 356.913 447.281 356.718 447.868 356.424C448.454 356.131 448.846 355.72 449.041 355.192C449.237 354.644 449.335 353.93 449.335 353.049C449.335 348.55 447.887 344.95 444.992 342.25C442.116 339.57 438.183 338.23 433.195 338.23C422.63 338.23 416.076 344.539 413.533 357.158ZM528.862 374.032H483.523V361.853H528.862V374.032ZM600.29 357.745L578.721 411.888H573.292L554.217 350.848C553.337 348.11 552.505 345.909 551.723 344.246C550.94 342.583 550.011 341.262 548.935 340.284C547.859 339.306 546.587 338.641 545.12 338.288C543.653 337.956 541.843 337.79 539.691 337.79V332.654H578.574V337.79C574.759 337.79 572.069 338.23 570.504 339.11C568.939 339.991 568.156 341.507 568.156 343.659C568.156 344.637 568.303 345.781 568.597 347.092C568.89 348.423 569.281 350.066 569.771 352.022L579.748 387.091H580.335L601.904 332.654H606.453L625.968 387.091H626.555L635.359 363.321C636.533 360.092 637.511 357.383 638.293 355.192C639.076 352.981 639.692 351.113 640.142 349.587C640.573 348.08 640.885 346.838 641.081 345.86C641.277 344.881 641.375 343.952 641.375 343.072C641.375 340.92 640.739 339.501 639.467 338.817C638.195 338.132 635.554 337.79 631.544 337.79V332.654H660.89V337.79C659.422 337.79 658.18 338.005 657.163 338.435C656.126 338.885 655.099 339.746 654.081 341.018C653.044 342.289 651.988 344.099 650.912 346.447C649.836 348.794 648.515 351.876 646.95 355.691L624.207 411.888H618.778L600.877 357.745H600.29ZM732.494 392.666L737.042 396.775C728.728 406.85 718.408 411.888 706.082 411.888C700.311 411.888 695.078 410.929 690.382 409.012C685.687 407.114 681.657 404.424 678.292 400.942C674.907 397.479 672.286 393.322 670.427 388.47C668.569 383.638 667.639 378.287 667.639 372.418C667.639 366.451 668.617 360.924 670.574 355.837C672.53 350.751 675.298 346.398 678.879 342.778C682.439 339.159 686.695 336.322 691.644 334.268C696.574 332.214 701.974 331.187 707.843 331.187C717.332 331.187 724.668 333.75 729.853 338.875C735.037 344.021 737.629 351.386 737.629 360.973C737.629 362.342 737.365 363.174 736.837 363.467C736.289 363.761 735.037 363.907 733.081 363.907H684.807C684.611 364.69 684.464 365.639 684.366 366.754C684.269 367.889 684.22 369.141 684.22 370.51C684.22 375.597 684.836 380.214 686.068 384.362C687.281 388.529 689.042 392.08 691.351 395.014C693.64 397.949 696.379 400.218 699.568 401.822C702.737 403.446 706.278 404.258 710.191 404.258C714.299 404.258 718.114 403.348 721.636 401.529C725.157 399.729 728.777 396.775 732.494 392.666ZM685.834 357.158H712.832C714.788 357.158 716.353 357.109 717.527 357.011C718.701 356.913 719.581 356.718 720.168 356.424C720.755 356.131 721.147 355.72 721.342 355.192C721.538 354.644 721.636 353.93 721.636 353.049C721.636 348.55 720.198 344.95 717.322 342.25C714.426 339.57 710.484 338.23 705.495 338.23C694.931 338.23 688.377 344.539 685.834 357.158ZM772.257 366.695V379.754C772.257 383.471 772.795 386.866 773.871 389.937C774.947 393.028 776.434 395.67 778.332 397.861C780.249 400.071 782.548 401.813 785.228 403.084C787.928 404.356 790.843 404.992 793.973 404.992C797.397 404.992 800.498 404.209 803.276 402.644C806.074 401.079 808.47 398.849 810.466 395.953C812.481 393.077 814.046 389.614 815.161 385.565C816.296 381.495 816.863 376.966 816.863 371.978C816.863 366.989 816.276 362.411 815.102 358.244C813.929 354.096 812.315 350.526 810.26 347.532C808.206 344.559 805.731 342.24 802.836 340.577C799.96 338.914 796.81 338.083 793.386 338.083C789.376 338.083 785.805 339.032 782.675 340.93C779.545 342.847 777.148 345.517 775.485 348.941C773.333 353.245 772.257 359.163 772.257 366.695ZM771.964 288.635V343.072H772.551C775.681 338.963 779.124 335.951 782.881 334.033C786.656 332.136 791.039 331.187 796.028 331.187C801.31 331.187 806.22 332.214 810.759 334.268C815.318 336.322 819.279 339.159 822.644 342.778C826.029 346.398 828.67 350.672 830.568 355.603C832.485 360.552 833.444 365.864 833.444 371.537C833.444 377.309 832.465 382.659 830.509 387.59C828.553 392.539 825.882 396.824 822.498 400.443C819.133 404.062 815.151 406.899 810.554 408.953C805.956 411.008 800.967 412.035 795.587 412.035C790.012 412.035 784.798 411.008 779.946 408.953C775.114 406.899 771.133 404.111 768.002 400.59L761.106 410.421H757.878V321.796C757.878 311.916 757.242 305.607 755.97 302.868C755.677 302.183 755.335 301.616 754.943 301.166C754.552 300.735 753.965 300.344 753.182 299.992C752.4 299.659 751.324 299.346 749.955 299.053C748.585 298.759 746.726 298.466 744.379 298.173V294.504L771.964 288.635Z" fill="#1F55B3"/>
</g>
</g>
<g clip-path="url(#clip7_0_5)">
<g clip-path="url(#clip8_0_5)">
<path d="M165.465 444.498C165.465 443.919 165.393 443.52 165.248 443.303C165.103 443.086 164.813 442.941 164.379 442.868L161.807 442.579V442.289H169.738V442.579L167.131 442.868C166.696 442.941 166.407 443.086 166.262 443.303C166.117 443.52 166.044 443.919 166.044 444.498V458.404C166.044 459.925 165.931 461.192 165.704 462.206C165.472 463.22 165.115 464.089 164.632 464.814C163.98 465.755 163.087 466.496 161.952 467.037C160.818 467.583 159.562 467.856 158.186 467.856C157.076 467.856 155.977 467.675 154.891 467.312C153.804 466.95 152.899 466.455 152.175 465.828C151.426 465.176 150.895 464.343 150.581 463.329C150.268 462.315 150.111 460.915 150.111 459.128V442.868L147.141 442.579V442.289H156.05V442.579L152.899 442.868V460.323C152.899 462.086 153.063 463.438 153.392 464.379C153.715 465.321 154.263 466.021 155.036 466.479C155.446 466.721 155.953 466.914 156.557 467.059C157.16 467.204 157.788 467.276 158.44 467.276C159.647 467.276 160.757 467.035 161.771 466.552C162.785 466.069 163.594 465.381 164.198 464.488C164.656 463.812 164.982 463.02 165.175 462.112C165.368 461.209 165.465 460.034 165.465 458.585V444.498ZM182.63 466.697L184.803 466.986V467.276H178.067V466.986L180.276 466.697V457.462C180.276 456.521 180.252 455.821 180.204 455.362C180.156 454.903 180.059 454.517 179.914 454.203C179.721 453.793 179.4 453.472 178.951 453.24C178.507 453.013 177.995 452.9 177.415 452.9C176.184 452.9 175.086 453.419 174.12 454.457V466.697L176.329 466.986V467.276H169.557V466.986L171.766 466.697V454.203L169.63 453.406V453.153L173.722 451.741H174.011V454.022C175.556 452.38 177.174 451.56 178.864 451.56C179.612 451.56 180.293 451.721 180.906 452.045C181.524 452.373 181.966 452.803 182.232 453.334C182.401 453.648 182.509 454.075 182.558 454.616C182.606 455.162 182.63 456.11 182.63 457.462V466.697ZM193.414 467.385L197.941 454.131C198.139 453.527 198.479 453.085 198.962 452.805C199.445 452.53 200.239 452.332 201.345 452.211V451.922H194.863V452.211C195.829 452.356 196.492 452.518 196.855 452.697C197.217 452.88 197.398 453.165 197.398 453.551C197.398 453.817 197.325 454.191 197.181 454.674L193.921 464.452H193.777L190.018 453.769C189.844 453.286 189.757 452.972 189.757 452.827C189.757 452.634 189.885 452.494 190.141 452.407C190.397 452.325 190.959 452.26 191.828 452.211V451.922H184.839V452.211C185.655 452.26 186.227 452.385 186.556 452.588C186.879 452.796 187.152 453.177 187.374 453.732L192.69 467.385H193.414ZM213.549 463.582L213.875 463.148L214.02 463.22L213.875 463.619C213.392 464.898 212.675 465.888 211.724 466.588C210.768 467.288 209.626 467.638 208.298 467.638C206.994 467.638 205.836 467.3 204.822 466.624C203.808 465.948 203.018 465.007 202.453 463.8C201.883 462.593 201.599 461.204 201.599 459.635C201.599 458.066 201.9 456.666 202.504 455.434C203.107 454.203 203.964 453.25 205.075 452.574C206.186 451.898 207.453 451.56 208.877 451.56C210.567 451.56 211.866 452.059 212.774 453.059C213.677 454.063 214.14 455.519 214.165 457.426L213.947 457.607H204.17C204.121 458.235 204.097 458.73 204.097 459.092C204.097 461.289 204.544 462.96 205.437 464.104C206.33 465.253 207.574 465.828 209.167 465.828C209.988 465.828 210.78 465.639 211.543 465.263C212.301 464.891 212.97 464.331 213.549 463.582ZM208.479 451.958C207.344 451.958 206.403 452.429 205.654 453.37C204.906 454.312 204.423 455.591 204.206 457.209L211.231 456.955C211.304 456.666 211.34 456.183 211.34 455.507C211.34 454.203 211.094 453.286 210.601 452.755C210.104 452.224 209.396 451.958 208.479 451.958ZM217.822 446.345C217.822 445.838 217.986 445.42 218.315 445.092C218.638 444.768 219.053 444.607 219.56 444.607C220.067 444.607 220.485 444.768 220.813 445.092C221.137 445.42 221.299 445.838 221.299 446.345C221.299 446.852 221.137 447.267 220.813 447.591C220.485 447.919 220.067 448.083 219.56 448.083C219.053 448.083 218.638 447.919 218.315 447.591C217.986 447.267 217.822 446.852 217.822 446.345ZM220.936 466.697V451.56H220.647L216.446 452.972V453.225L218.583 454.022V466.697L216.374 466.986V467.276H223.145V466.986L220.936 466.697ZM228.976 466.697V441.166H228.686L224.485 442.579V442.832L226.622 443.629V466.697L224.413 466.986V467.276H231.185V466.986L228.976 466.697ZM234.19 446.345C234.19 445.838 234.352 445.42 234.676 445.092C235.004 444.768 235.422 444.607 235.929 444.607C236.436 444.607 236.851 444.768 237.174 445.092C237.503 445.42 237.667 445.838 237.667 446.345C237.667 446.852 237.503 447.267 237.174 447.591C236.851 447.919 236.436 448.083 235.929 448.083C235.422 448.083 235.004 447.919 234.676 447.591C234.352 447.267 234.19 446.852 234.19 446.345ZM237.305 466.697V451.56H237.015L232.814 452.972V453.225L234.951 454.022V466.697L232.742 466.986V467.276H239.514V466.986L237.305 466.697ZM254.1 466.697L256.273 466.986V467.276H249.538V466.986L251.747 466.697V457.462C251.747 456.521 251.722 455.821 251.674 455.362C251.626 454.903 251.529 454.517 251.384 454.203C251.191 453.793 250.873 453.472 250.428 453.24C249.979 453.013 249.465 452.9 248.886 452.9C247.655 452.9 246.556 453.419 245.59 454.457V466.697L247.799 466.986V467.276H241.028V466.986L243.237 466.697V454.203L241.1 453.406V453.153L245.192 451.741H245.482V454.022C247.027 452.38 248.644 451.56 250.334 451.56C251.083 451.56 251.766 451.721 252.384 452.045C252.997 452.373 253.437 452.803 253.702 453.334C253.871 453.648 253.98 454.075 254.028 454.616C254.076 455.162 254.1 456.11 254.1 457.462V466.697ZM269.093 451.306C268.61 451.306 268.26 451.801 268.043 452.791C268.67 453.274 269.153 453.86 269.491 454.551C269.829 455.236 269.998 456.002 269.998 456.847C269.998 458.15 269.607 459.266 268.825 460.193C268.038 461.125 266.992 461.723 265.689 461.989C265.399 462.061 265.109 462.098 264.82 462.098C263.564 462.315 262.594 462.617 261.908 463.003C261.218 463.389 260.872 463.824 260.872 464.307C260.872 464.645 260.981 464.927 261.198 465.154C261.416 465.386 261.826 465.606 262.43 465.813C263.033 466.016 263.938 466.226 265.146 466.443C267.198 466.83 268.658 467.373 269.527 468.073C270.396 468.773 270.831 469.763 270.831 471.042C270.831 472.008 270.517 472.884 269.889 473.671C269.262 474.454 268.393 475.069 267.282 475.518C266.172 475.963 264.928 476.185 263.552 476.185C261.548 476.185 259.998 475.83 258.902 475.12C257.801 474.405 257.251 473.408 257.251 472.129C257.251 471.235 257.608 470.41 258.323 469.652C259.033 468.889 259.991 468.314 261.198 467.928C260.353 467.59 259.745 467.209 259.373 466.784C258.997 466.364 258.808 465.864 258.808 465.284C258.808 464.608 259.214 463.993 260.025 463.438C260.831 462.882 261.995 462.436 263.516 462.098C262.019 461.953 260.807 461.398 259.88 460.432C258.948 459.466 258.482 458.259 258.482 456.811C258.482 455.265 259.021 454.003 260.097 453.023C261.169 452.047 262.55 451.56 264.24 451.56C265.592 451.56 266.763 451.886 267.753 452.537C268.356 450.461 269.286 449.423 270.541 449.423C271 449.423 271.362 449.549 271.628 449.8C271.893 450.056 272.026 450.389 272.026 450.799C272.026 451.137 271.905 451.427 271.664 451.668C271.422 451.91 271.133 452.03 270.795 452.03C270.505 452.03 270.203 451.898 269.889 451.632C269.841 451.608 269.74 451.548 269.585 451.451C269.426 451.354 269.262 451.306 269.093 451.306ZM264.24 461.772C265.158 461.772 265.901 461.313 266.471 460.396C267.036 459.478 267.318 458.295 267.318 456.847C267.318 455.398 267.036 454.215 266.471 453.298C265.901 452.38 265.158 451.922 264.24 451.922C263.323 451.922 262.582 452.38 262.017 453.298C261.447 454.215 261.162 455.398 261.162 456.847C261.162 458.295 261.447 459.478 262.017 460.396C262.582 461.313 263.323 461.772 264.24 461.772ZM268.731 472.129C268.731 471.211 268.405 470.506 267.753 470.014C267.101 469.517 265.87 469.087 264.059 468.725C263.045 468.556 262.212 468.338 261.56 468.073C259.846 468.676 258.989 469.92 258.989 471.803C258.989 473.082 259.407 474.072 260.242 474.772C261.073 475.472 262.248 475.822 263.769 475.822C265.29 475.822 266.497 475.492 267.391 474.83C268.284 474.164 268.731 473.263 268.731 472.129ZM290.603 442.687V466.697L286.692 466.986V467.276H297.303V466.986L293.392 466.697V442.687H298.679C299.258 442.687 299.674 442.777 299.925 442.955C300.181 443.139 300.417 443.508 300.634 444.063L302.88 449.64L303.169 449.568L302.373 441.71H302.155C301.624 441.951 301.17 442.108 300.794 442.18C300.422 442.253 299.946 442.289 299.367 442.289H285.425C284.846 442.289 284.367 442.253 283.991 442.18C283.619 442.108 283.168 441.951 282.637 441.71H282.419L281.007 449.568L281.297 449.64L283.795 444.063C284.037 443.508 284.29 443.139 284.556 442.955C284.821 442.777 285.244 442.687 285.823 442.687H290.603ZM317.865 466.697L320.074 466.986V467.276H313.302V466.986L315.511 466.697V457.462C315.511 456.473 315.487 455.753 315.438 455.304C315.39 454.86 315.294 454.493 315.149 454.203C314.956 453.793 314.642 453.472 314.207 453.24C313.773 453.013 313.266 452.9 312.686 452.9C311.431 452.9 310.344 453.419 309.427 454.457V466.697L311.636 466.986V467.276H304.864V466.986L307.073 466.697V443.629L304.937 442.832V442.579L309.137 441.166H309.427V453.913C310.175 453.141 310.955 452.554 311.766 452.154C312.573 451.758 313.374 451.56 314.171 451.56C314.895 451.56 315.554 451.717 316.148 452.03C316.737 452.344 317.177 452.779 317.466 453.334C317.635 453.648 317.744 454.075 317.792 454.616C317.841 455.162 317.865 456.11 317.865 457.462V466.697ZM329.779 451.56C330.262 451.56 330.672 451.721 331.01 452.045C331.348 452.373 331.517 452.767 331.517 453.225C331.517 453.612 331.384 453.938 331.119 454.203C330.853 454.469 330.527 454.602 330.141 454.602C329.9 454.602 329.702 454.546 329.547 454.435C329.388 454.329 329.224 454.167 329.055 453.95C328.886 453.757 328.736 453.612 328.606 453.515C328.47 453.419 328.306 453.37 328.113 453.37C327.727 453.37 327.336 453.6 326.94 454.058C326.539 454.517 326.254 455.048 326.085 455.652V466.697L328.982 466.986V467.276H321.522V466.986L323.731 466.697V454.022L321.595 453.225V452.972L325.687 451.56H325.976V454.746C327.328 452.622 328.596 451.56 329.779 451.56ZM344.988 463.582L345.314 463.148L345.459 463.22L345.314 463.619C344.831 464.898 344.112 465.888 343.156 466.588C342.205 467.288 341.065 467.638 339.738 467.638C338.434 467.638 337.275 467.3 336.261 466.624C335.247 465.948 334.455 465.007 333.885 463.8C333.321 462.593 333.038 461.204 333.038 459.635C333.038 458.066 333.34 456.666 333.943 455.434C334.547 454.203 335.404 453.25 336.515 452.574C337.625 451.898 338.893 451.56 340.317 451.56C342.007 451.56 343.303 452.059 344.206 453.059C345.114 454.063 345.58 455.519 345.604 457.426L345.387 457.607H335.609C335.561 458.235 335.537 458.73 335.537 459.092C335.537 461.289 335.983 462.96 336.877 464.104C337.77 465.253 339.013 465.828 340.607 465.828C341.427 465.828 342.217 465.639 342.975 465.263C343.738 464.891 344.409 464.331 344.988 463.582ZM339.919 451.958C338.784 451.958 337.842 452.429 337.094 453.37C336.346 454.312 335.863 455.591 335.645 457.209L342.671 456.955C342.743 456.666 342.779 456.183 342.779 455.507C342.779 454.203 342.531 453.286 342.033 452.755C341.541 452.224 340.836 451.958 339.919 451.958ZM351.608 467.53C350.696 467.53 349.942 467.209 349.349 466.566C348.755 465.929 348.458 465.103 348.458 464.089C348.458 462.882 349.008 461.917 350.109 461.192C351.205 460.468 353.069 459.84 355.7 459.309V456.014C355.7 454.614 355.543 453.641 355.23 453.095C354.921 452.554 354.377 452.284 353.6 452.284C352.852 452.284 352.248 452.482 351.789 452.878C351.335 453.279 351.108 453.817 351.108 454.493L351.145 455.471C351.145 456.074 351.029 456.55 350.797 456.897C350.565 457.25 350.247 457.426 349.841 457.426C349.479 457.426 349.182 457.305 348.95 457.064C348.723 456.823 348.61 456.509 348.61 456.122C348.61 455.543 348.892 454.908 349.457 454.218C350.022 453.532 350.754 452.96 351.652 452.501C352.738 451.898 353.858 451.596 355.012 451.596C355.693 451.596 356.268 451.729 356.736 451.994C357.209 452.26 357.552 452.634 357.764 453.117C357.885 453.431 357.965 453.817 358.003 454.276C358.037 454.734 358.054 455.616 358.054 456.919V463.836C358.054 464.705 358.139 465.304 358.308 465.632C358.481 465.956 358.783 466.117 359.213 466.117C359.87 466.117 360.352 465.888 360.662 465.429L360.806 465.502C360.521 466.105 360.138 466.569 359.655 466.892C359.172 467.221 358.65 467.385 358.09 467.385C357.463 467.385 356.946 467.196 356.54 466.82C356.125 466.448 355.896 465.948 355.852 465.321L355.737 465.284C355.186 465.985 354.549 466.533 353.824 466.929C353.1 467.329 352.361 467.53 351.608 467.53ZM353.165 466.154C353.672 466.154 354.15 466.04 354.599 465.813C355.048 465.581 355.415 465.248 355.7 464.814V459.708C354.45 460.021 353.479 460.335 352.789 460.649C352.098 460.963 351.611 461.337 351.326 461.772C351.031 462.206 350.884 462.75 350.884 463.401C350.884 464.246 351.092 464.915 351.507 465.408C351.912 465.905 352.465 466.154 353.165 466.154ZM365.912 448.445L361.929 452.284L362.001 452.465H363.703V464.053C363.703 464.802 363.788 465.405 363.957 465.864C364.126 466.323 364.416 466.697 364.826 466.986C365.43 467.421 366.118 467.638 366.89 467.638C367.639 467.638 368.346 467.421 369.012 466.986C369.674 466.552 370.186 465.96 370.548 465.212L370.403 465.103C369.968 465.538 369.57 465.852 369.208 466.045C368.846 466.238 368.471 466.335 368.085 466.335C367.289 466.335 366.745 466.045 366.456 465.465C366.19 465.055 366.057 464.427 366.057 463.582V452.501H369.968L370.186 451.922H366.057V448.481L365.912 448.445ZM377.827 451.56C376.137 451.56 374.826 451.934 373.894 452.682C372.967 453.431 372.503 454.481 372.503 455.833C372.503 456.678 372.672 457.378 373.01 457.933C373.348 458.488 373.763 458.928 374.256 459.251C374.753 459.58 375.412 459.949 376.233 460.359C377.344 460.891 378.177 461.41 378.732 461.917C379.287 462.424 379.565 463.172 379.565 464.162C379.565 465.079 379.299 465.82 378.768 466.385C378.237 466.955 377.525 467.24 376.632 467.24C375.642 467.24 374.838 466.834 374.22 466.023C373.607 465.217 373.179 463.969 372.938 462.279H372.503L372.684 466.986C373.191 467.18 373.807 467.337 374.531 467.457C375.255 467.578 375.907 467.638 376.487 467.638C378.08 467.638 379.348 467.209 380.289 466.349C381.231 465.494 381.701 464.331 381.701 462.858C381.701 461.965 381.525 461.229 381.173 460.649C380.825 460.07 380.403 459.616 379.905 459.288C379.413 458.964 378.744 458.609 377.899 458.223C376.813 457.716 376.004 457.226 375.473 456.753C374.942 456.284 374.676 455.591 374.676 454.674C374.676 453.853 374.917 453.194 375.4 452.697C375.883 452.204 376.523 451.958 377.32 451.958C378.189 451.958 378.884 452.284 379.405 452.936C379.922 453.588 380.349 454.638 380.687 456.086H381.086V452.067C380.7 451.922 380.205 451.801 379.601 451.704C378.997 451.608 378.406 451.56 377.827 451.56ZM385.866 472.925C386.397 472.418 386.832 471.815 387.17 471.115C387.508 470.415 387.677 469.763 387.677 469.159C387.677 468.676 387.585 468.302 387.401 468.037C387.223 467.771 386.94 467.493 386.554 467.204C386.192 466.89 385.931 466.629 385.772 466.422C385.617 466.219 385.54 465.924 385.54 465.538C385.54 465.007 385.702 464.565 386.025 464.213C386.354 463.865 386.759 463.691 387.242 463.691C387.894 463.691 388.418 463.937 388.814 464.43C389.214 464.927 389.415 465.634 389.415 466.552C389.415 467.831 389.125 469.026 388.546 470.137C387.966 471.248 387.121 472.237 386.011 473.106L385.866 472.925ZM420.08 459.635L420.479 459.671L419.573 467.276H401.829V466.986L404.798 466.697V442.868L401.829 442.579V442.289H419.609L420.116 449.097L419.754 449.133L417.726 444.063C417.509 443.508 417.275 443.146 417.024 442.977C416.768 442.808 416.35 442.724 415.771 442.724H407.587V453.841H412.946C413.526 453.841 413.936 453.744 414.177 453.551C414.419 453.358 414.588 452.984 414.684 452.429L415.3 449.495H415.735V458.766H415.3L414.684 455.833C414.588 455.278 414.419 454.903 414.177 454.71C413.936 454.517 413.526 454.42 412.946 454.42H407.587V466.842H415.698C416.278 466.842 416.7 466.75 416.966 466.566C417.231 466.388 417.473 466.033 417.69 465.502L420.08 459.635ZM443.112 466.697L445.357 466.986V467.276H438.549V466.986L440.758 466.697V457.462C440.758 456.521 440.734 455.821 440.685 455.362C440.637 454.903 440.553 454.517 440.432 454.203C440.07 453.334 439.346 452.9 438.259 452.9C437.1 452.9 436.123 453.431 435.326 454.493C435.374 455.314 435.398 456.304 435.398 457.462V466.697L437.644 466.986V467.276H430.799V466.986L433.044 466.697V457.462C433.044 456.521 433.02 455.821 432.972 455.362C432.924 454.903 432.839 454.517 432.719 454.203C432.356 453.334 431.632 452.9 430.546 452.9C429.411 452.9 428.457 453.394 427.685 454.384V466.697L429.894 466.986V467.276H423.158V466.986L425.331 466.697V454.022L423.194 453.225V452.972L427.287 451.56H427.576V453.986C429.001 452.368 430.485 451.56 432.031 451.56C433.431 451.56 434.421 452.151 435 453.334C435.097 453.527 435.181 453.769 435.254 454.058C436.726 452.393 438.223 451.56 439.744 451.56C441.144 451.56 442.134 452.151 442.713 453.334C442.882 453.648 442.991 454.087 443.039 454.652C443.088 455.222 443.112 456.159 443.112 457.462V466.697ZM451.042 466.986C452.032 467.421 453.022 467.638 454.012 467.638C455.436 467.638 456.716 467.276 457.851 466.552C458.985 465.828 459.866 464.826 460.494 463.546C461.122 462.267 461.436 460.806 461.436 459.164C461.436 457.716 461.194 456.412 460.711 455.253C460.229 454.095 459.553 453.189 458.683 452.537C457.814 451.886 456.849 451.56 455.786 451.56C454.845 451.56 453.956 451.789 453.121 452.248C452.291 452.706 451.61 453.334 451.079 454.131H450.934V451.56H450.644L446.552 452.972V453.225L448.689 454.022V475.171L446.48 475.46V475.75H454.302V475.497L451.042 475.098V466.986ZM454.265 467.276C453.396 467.276 452.641 467.023 451.999 466.516C451.361 466.009 451.042 465.405 451.042 464.705V454.819C451.332 454.143 451.779 453.612 452.382 453.225C452.986 452.839 453.662 452.646 454.41 452.646C455.738 452.646 456.8 453.286 457.597 454.565C458.394 455.845 458.792 457.547 458.792 459.671C458.792 461.12 458.599 462.424 458.213 463.582C457.826 464.741 457.288 465.647 456.598 466.298C455.912 466.95 455.135 467.276 454.265 467.276ZM471.532 451.56C472.937 451.56 474.183 451.898 475.269 452.574C476.355 453.25 477.2 454.196 477.804 455.413C478.408 456.634 478.709 458.03 478.709 459.599C478.709 461.168 478.408 462.561 477.804 463.778C477.2 465 476.355 465.948 475.269 466.624C474.183 467.3 472.937 467.638 471.532 467.638C470.137 467.638 468.896 467.3 467.809 466.624C466.723 465.948 465.878 465 465.274 463.778C464.671 462.561 464.369 461.168 464.369 459.599C464.369 458.03 464.671 456.634 465.274 455.413C465.878 454.196 466.723 453.25 467.809 452.574C468.896 451.898 470.137 451.56 471.532 451.56ZM467.041 459.599C467.041 462.013 467.442 463.896 468.244 465.248C469.04 466.6 470.137 467.276 471.532 467.276C472.937 467.276 474.035 466.6 474.827 465.248C475.629 463.896 476.03 462.013 476.03 459.599C476.03 457.185 475.629 455.302 474.827 453.95C474.035 452.598 472.937 451.922 471.532 451.922C470.137 451.922 469.04 452.598 468.244 453.95C467.442 455.302 467.041 457.185 467.041 459.599ZM496.41 451.922H502.241V452.211C501.178 452.38 500.43 452.627 499.996 452.95C499.561 453.279 499.211 453.865 498.945 454.71L494.817 467.385H494.419L490.652 456.34L487.031 467.385H486.633L481.744 453.443C481.647 453.129 481.539 452.9 481.418 452.755C481.297 452.61 481.112 452.501 480.86 452.429C480.605 452.356 480.175 452.284 479.571 452.211V451.922H486.053V452.211C485.329 452.26 484.854 452.337 484.627 452.443C484.395 452.554 484.279 452.718 484.279 452.936C484.279 453.105 484.351 453.394 484.496 453.805L487.647 463.438H487.792L490.363 455.543L489.711 453.624C489.542 453.165 489.332 452.832 489.081 452.624C488.825 452.421 488.371 452.284 487.719 452.211V451.922H493.839V452.211C493.115 452.26 492.639 452.337 492.412 452.443C492.181 452.554 492.065 452.718 492.065 452.936C492.065 453.105 492.137 453.394 492.282 453.805L495.469 463.438H495.614L498.402 454.674C498.547 454.191 498.619 453.817 498.619 453.551C498.619 453.165 498.462 452.88 498.149 452.697C497.835 452.518 497.255 452.356 496.41 452.211V451.922ZM514.589 463.582L514.915 463.148L515.06 463.22L514.915 463.619C514.433 464.898 513.713 465.888 512.757 466.588C511.806 467.288 510.666 467.638 509.339 467.638C508.035 467.638 506.876 467.3 505.862 466.624C504.848 465.948 504.056 465.007 503.486 463.8C502.922 462.593 502.639 461.204 502.639 459.635C502.639 458.066 502.941 456.666 503.544 455.434C504.148 454.203 505.005 453.25 506.116 452.574C507.226 451.898 508.494 451.56 509.918 451.56C511.608 451.56 512.904 452.059 513.807 453.059C514.715 454.063 515.181 455.519 515.205 457.426L514.988 457.607H505.21C505.162 458.235 505.138 458.73 505.138 459.092C505.138 461.289 505.584 462.96 506.478 464.104C507.371 465.253 508.614 465.828 510.208 465.828C511.028 465.828 511.818 465.639 512.576 465.263C513.339 464.891 514.01 464.331 514.589 463.582ZM509.52 451.958C508.385 451.958 507.443 452.429 506.695 453.37C505.947 454.312 505.464 455.591 505.246 457.209L512.272 456.955C512.344 456.666 512.38 456.183 512.38 455.507C512.38 454.203 512.132 453.286 511.634 452.755C511.142 452.224 510.437 451.958 509.52 451.958ZM525.671 451.56C526.154 451.56 526.564 451.721 526.902 452.045C527.24 452.373 527.409 452.767 527.409 453.225C527.409 453.612 527.276 453.938 527.011 454.203C526.745 454.469 526.419 454.602 526.033 454.602C525.791 454.602 525.591 454.546 525.432 454.435C525.277 454.329 525.115 454.167 524.946 453.95C524.777 453.757 524.625 453.612 524.49 453.515C524.36 453.419 524.198 453.37 524.005 453.37C523.619 453.37 523.225 453.6 522.824 454.058C522.428 454.517 522.146 455.048 521.977 455.652V466.697L524.874 466.986V467.276H517.414V466.986L519.623 466.697V454.022L517.487 453.225V452.972L521.579 451.56H521.868V454.746C523.22 452.622 524.488 451.56 525.671 451.56ZM530.263 446.345C530.263 445.838 530.427 445.42 530.755 445.092C531.078 444.768 531.494 444.607 532.001 444.607C532.508 444.607 532.925 444.768 533.254 445.092C533.577 445.42 533.739 445.838 533.739 446.345C533.739 446.852 533.577 447.267 533.254 447.591C532.925 447.919 532.508 448.083 532.001 448.083C531.494 448.083 531.078 447.919 530.755 447.591C530.427 447.267 530.263 446.852 530.263 446.345ZM533.377 466.697V451.56H533.087L528.886 452.972V453.225L531.023 454.022V466.697L528.814 466.986V467.276H535.586V466.986L533.377 466.697ZM550.18 466.697L552.353 466.986V467.276H545.617V466.986L547.826 466.697V457.462C547.826 456.521 547.802 455.821 547.754 455.362C547.705 454.903 547.609 454.517 547.464 454.203C547.271 453.793 546.952 453.472 546.508 453.24C546.059 453.013 545.545 452.9 544.965 452.9C543.734 452.9 542.635 453.419 541.67 454.457V466.697L543.879 466.986V467.276H537.107V466.986L539.316 466.697V454.203L537.179 453.406V453.153L541.271 451.741H541.561V454.022C543.106 452.38 544.724 451.56 546.414 451.56C547.162 451.56 547.845 451.721 548.463 452.045C549.076 452.373 549.516 452.803 549.781 453.334C549.95 453.648 550.059 454.075 550.107 454.616C550.156 455.162 550.18 456.11 550.18 457.462V466.697ZM565.172 451.306C564.689 451.306 564.339 451.801 564.122 452.791C564.75 453.274 565.232 453.86 565.57 454.551C565.908 455.236 566.077 456.002 566.077 456.847C566.077 458.15 565.684 459.266 564.897 460.193C564.115 461.125 563.072 461.723 561.768 461.989C561.478 462.061 561.189 462.098 560.899 462.098C559.644 462.315 558.671 462.617 557.98 463.003C557.294 463.389 556.952 463.824 556.952 464.307C556.952 464.645 557.06 464.927 557.278 465.154C557.495 465.386 557.905 465.606 558.509 465.813C559.112 466.016 560.018 466.226 561.225 466.443C563.277 466.83 564.738 467.373 565.607 468.073C566.476 468.773 566.91 469.763 566.91 471.042C566.91 472.008 566.596 472.884 565.969 473.671C565.341 474.454 564.472 475.069 563.361 475.518C562.251 475.963 561.008 476.185 559.631 476.185C557.628 476.185 556.075 475.83 554.974 475.12C553.878 474.405 553.33 473.408 553.33 472.129C553.33 471.235 553.685 470.41 554.395 469.652C555.11 468.889 556.07 468.314 557.278 467.928C556.433 467.59 555.822 467.209 555.445 466.784C555.073 466.364 554.887 465.864 554.887 465.284C554.887 464.608 555.291 463.993 556.097 463.438C556.908 462.882 558.074 462.436 559.595 462.098C558.098 461.953 556.884 461.398 555.952 460.432C555.025 459.466 554.562 458.259 554.562 456.811C554.562 455.265 555.098 454.003 556.169 453.023C557.246 452.047 558.63 451.56 560.319 451.56C561.671 451.56 562.842 451.886 563.832 452.537C564.436 450.461 565.365 449.423 566.621 449.423C567.079 449.423 567.441 449.549 567.707 449.8C567.973 450.056 568.105 450.389 568.105 450.799C568.105 451.137 567.985 451.427 567.743 451.668C567.502 451.91 567.212 452.03 566.874 452.03C566.584 452.03 566.283 451.898 565.969 451.632C565.921 451.608 565.817 451.548 565.657 451.451C565.503 451.354 565.341 451.306 565.172 451.306ZM560.319 461.772C561.237 461.772 561.978 461.313 562.543 460.396C563.113 459.478 563.398 458.295 563.398 456.847C563.398 455.398 563.113 454.215 562.543 453.298C561.978 452.38 561.237 451.922 560.319 451.922C559.402 451.922 558.659 452.38 558.089 453.298C557.524 454.215 557.241 455.398 557.241 456.847C557.241 458.295 557.524 459.478 558.089 460.396C558.659 461.313 559.402 461.772 560.319 461.772ZM564.81 472.129C564.81 471.211 564.484 470.506 563.832 470.014C563.18 469.517 561.949 469.087 560.138 468.725C559.124 468.556 558.292 468.338 557.64 468.073C555.926 468.676 555.069 469.92 555.069 471.803C555.069 473.082 555.484 474.072 556.314 474.772C557.15 475.472 558.328 475.822 559.849 475.822C561.37 475.822 562.577 475.492 563.47 474.83C564.363 474.164 564.81 473.263 564.81 472.129ZM586.205 467.856C587.702 467.856 589.049 467.542 590.246 466.914C591.439 466.286 592.373 465.422 593.049 464.321C593.725 463.225 594.063 461.977 594.063 460.577C594.063 459.321 593.793 458.264 593.252 457.404C592.706 456.55 591.994 455.833 591.115 455.253C590.232 454.674 589.066 454.058 587.617 453.406C585.999 452.658 584.751 452.018 583.873 451.487C582.989 450.956 582.301 450.328 581.808 449.604C581.311 448.88 581.062 447.987 581.062 446.924C581.062 445.452 581.509 444.286 582.402 443.426C583.296 442.571 584.491 442.144 585.987 442.144C588.474 442.144 590.321 443.388 591.528 445.874C592.132 447.105 592.627 448.53 593.013 450.147L593.375 450.039L593.013 442.144H592.542L591.673 443.882C590.683 443.11 589.761 442.555 588.906 442.217C588.047 441.879 587.122 441.71 586.132 441.71C584.708 441.71 583.436 442.004 582.315 442.593C581.19 443.187 580.309 444.008 579.672 445.056C579.03 446.108 578.709 447.299 578.709 448.626C578.709 449.93 579.005 451.033 579.599 451.936C580.188 452.844 580.93 453.58 581.823 454.145C582.716 454.715 583.827 455.29 585.155 455.869C586.772 456.569 588.027 457.185 588.921 457.716C589.814 458.247 590.521 458.887 591.043 459.635C591.559 460.384 591.818 461.301 591.818 462.387C591.818 463.932 591.33 465.156 590.355 466.059C589.375 466.967 588.015 467.421 586.277 467.421C584.249 467.421 582.62 466.733 581.388 465.357C580.785 464.681 580.297 463.884 579.925 462.967C579.549 462.049 579.179 460.77 578.817 459.128L578.491 459.201L578.962 467.856H579.433L580.193 465.864C580.942 466.492 581.847 466.982 582.909 467.334C583.972 467.682 585.07 467.856 586.205 467.856ZM609.236 463.582L609.562 463.148L609.707 463.22L609.562 463.619C609.079 464.898 608.362 465.888 607.411 466.588C606.455 467.288 605.313 467.638 603.985 467.638C602.682 467.638 601.523 467.3 600.509 466.624C599.495 465.948 598.706 465.007 598.141 463.8C597.571 462.593 597.286 461.204 597.286 459.635C597.286 458.066 597.588 456.666 598.191 455.434C598.795 454.203 599.652 453.25 600.762 452.574C601.873 451.898 603.14 451.56 604.565 451.56C606.255 451.56 607.554 452.059 608.461 453.059C609.364 454.063 609.828 455.519 609.852 457.426L609.635 457.607H599.857C599.809 458.235 599.785 458.73 599.785 459.092C599.785 461.289 600.231 462.96 601.125 464.104C602.018 465.253 603.261 465.828 604.854 465.828C605.675 465.828 606.467 465.639 607.23 465.263C607.988 464.891 608.657 464.331 609.236 463.582ZM604.166 451.958C603.032 451.958 602.09 452.429 601.342 453.37C600.593 454.312 600.111 455.591 599.893 457.209L606.919 456.955C606.991 456.666 607.027 456.183 607.027 455.507C607.027 454.203 606.781 453.286 606.289 452.755C605.791 452.224 605.084 451.958 604.166 451.958ZM619.774 451.56C618.398 451.56 617.167 451.91 616.081 452.61C614.994 453.31 614.142 454.288 613.524 455.543C612.911 456.798 612.604 458.211 612.604 459.78C612.604 461.301 612.887 462.658 613.452 463.85C614.021 465.048 614.806 465.977 615.805 466.639C616.81 467.305 617.952 467.638 619.231 467.638C620.559 467.638 621.711 467.288 622.686 466.588C623.666 465.888 624.398 464.898 624.88 463.619L625.025 463.22L624.88 463.148L624.555 463.582C623.951 464.355 623.292 464.927 622.577 465.299C621.867 465.676 621.066 465.864 620.173 465.864C618.531 465.864 617.264 465.284 616.37 464.126C615.477 462.967 615.03 461.337 615.03 459.237C615.03 457.837 615.228 456.581 615.624 455.471C616.025 454.36 616.576 453.491 617.276 452.863C617.976 452.236 618.76 451.922 619.63 451.922C620.354 451.922 620.849 452.115 621.114 452.501C621.38 452.887 621.597 453.455 621.766 454.203C621.911 454.855 622.073 455.333 622.251 455.637C622.435 455.937 622.768 456.086 623.251 456.086C623.661 456.086 623.987 455.958 624.229 455.702C624.47 455.451 624.591 455.121 624.591 454.71C624.591 453.817 624.125 453.069 623.193 452.465C622.266 451.861 621.126 451.56 619.774 451.56ZM639.112 465.031L641.104 465.465V465.647L637.157 467.457H636.939V464.995L636.831 464.959C635.406 466.745 633.873 467.638 632.232 467.638C631.483 467.638 630.819 467.481 630.24 467.168C629.661 466.854 629.238 466.419 628.973 465.864C628.804 465.55 628.695 465.12 628.647 464.575C628.598 464.034 628.574 463.087 628.574 461.736V452.501L626.401 452.211V451.922H630.928V461.736C630.928 462.701 630.952 463.406 631 463.85C631.049 464.299 631.145 464.681 631.29 464.995C631.459 465.381 631.742 465.688 632.138 465.915C632.538 466.146 632.992 466.262 633.499 466.262C634.103 466.262 634.682 466.113 635.237 465.813C635.793 465.509 636.3 465.067 636.758 464.488V452.501L634.586 452.211V451.922H639.112V465.031ZM651.055 451.56C651.538 451.56 651.949 451.721 652.287 452.045C652.625 452.373 652.794 452.767 652.794 453.225C652.794 453.612 652.661 453.938 652.395 454.203C652.13 454.469 651.804 454.602 651.417 454.602C651.176 454.602 650.978 454.546 650.824 454.435C650.664 454.329 650.5 454.167 650.331 453.95C650.162 453.757 650.012 453.612 649.882 453.515C649.747 453.419 649.583 453.37 649.39 453.37C649.003 453.37 648.612 453.6 648.216 454.058C647.815 454.517 647.531 455.048 647.362 455.652V466.697L650.259 466.986V467.276H642.799V466.986L645.008 466.697V454.022L642.871 453.225V452.972L646.963 451.56H647.253V454.746C648.605 452.622 649.872 451.56 651.055 451.56ZM655.654 446.345C655.654 445.838 655.819 445.42 656.147 445.092C656.47 444.768 656.886 444.607 657.393 444.607C657.9 444.607 658.317 444.768 658.646 445.092C658.969 445.42 659.131 445.838 659.131 446.345C659.131 446.852 658.969 447.267 658.646 447.591C658.317 447.919 657.9 448.083 657.393 448.083C656.886 448.083 656.47 447.919 656.147 447.591C655.819 447.267 655.654 446.852 655.654 446.345ZM658.769 466.697V451.56H658.479L654.278 452.972V453.225L656.415 454.022V466.697L654.206 466.986V467.276H660.978V466.986L658.769 466.697ZM666.446 448.445L662.463 452.284L662.535 452.465H664.237V464.053C664.237 464.802 664.321 465.405 664.49 465.864C664.659 466.323 664.949 466.697 665.36 466.986C665.963 467.421 666.651 467.638 667.424 467.638C668.172 467.638 668.877 467.421 669.539 466.986C670.205 466.552 670.719 465.96 671.081 465.212L670.936 465.103C670.502 465.538 670.104 465.852 669.741 466.045C669.379 466.238 669.005 466.335 668.619 466.335C667.822 466.335 667.279 466.045 666.989 465.465C666.724 465.055 666.591 464.427 666.591 463.582V452.501H670.502L670.719 451.922H666.591V448.481L666.446 448.445ZM680.243 464.633L676.405 453.769C676.236 453.286 676.151 452.972 676.151 452.827C676.151 452.634 676.277 452.494 676.528 452.407C676.784 452.325 677.346 452.26 678.215 452.211V451.922H671.226V452.211C672.047 452.26 672.607 452.361 672.906 452.516C673.211 452.675 673.459 452.984 673.652 453.443L679.229 467.928L677.817 472.237C677.503 473.179 677.213 473.85 676.948 474.251C676.682 474.647 676.393 474.845 676.079 474.845C675.861 474.845 675.697 474.767 675.586 474.613C675.48 474.454 675.379 474.205 675.282 473.867C675.161 473.432 675.004 473.094 674.811 472.853C674.618 472.612 674.292 472.491 673.833 472.491C673.351 472.491 672.969 472.636 672.689 472.925C672.414 473.215 672.276 473.601 672.276 474.084C672.276 474.688 672.506 475.19 672.964 475.591C673.423 475.987 673.99 476.185 674.666 476.185C675.487 476.185 676.211 475.835 676.839 475.134C677.346 474.652 677.805 473.77 678.215 472.491L684.263 454.71C684.528 453.889 684.903 453.31 685.385 452.972C685.868 452.634 686.689 452.38 687.848 452.211V451.922H681.366V452.211C682.331 452.356 682.995 452.518 683.358 452.697C683.72 452.88 683.901 453.165 683.901 453.551C683.901 453.817 683.828 454.191 683.683 454.674L680.388 464.633H680.243Z" fill="#1F55B3"/>
</g>
</g>
</g>
</g>
<g clip-path="url(#clip9_0_5)">
<g clip-path="url(#clip10_0_5)">
<path d="M365.656 259.504C322.71 259.504 287.898 224.691 287.898 181.746V78.0681C287.898 35.1223 322.71 0.310013 365.656 0.310013H469.333C512.279 0.310013 547.091 35.1223 547.091 78.0681V181.746C547.091 224.691 512.279 259.504 469.333 259.504H365.656Z" fill="#1F55B3"/>
<g clip-path="url(#clip11_0_5)">
<g clip-path="url(#clip12_0_5)">
<path d="M417.496 207.652C417.523 207.652 417.546 207.652 417.569 207.652C417.602 207.652 417.635 207.665 417.665 207.665H417.671H417.675C417.724 207.665 417.774 207.645 417.823 207.645C460.543 207.463 495.243 172.664 495.243 129.898C495.243 87.2382 460.705 52.5054 418.124 52.1652C418.107 52.1652 418.087 52.1652 418.074 52.1652C417.883 52.1619 417.694 52.1487 417.496 52.1487C374.625 52.1487 339.746 87.0301 339.746 129.898C339.746 172.773 374.625 207.652 417.496 207.652ZM484.795 129.898C484.795 138.734 483.067 147.167 479.952 154.903C476.289 153.612 470.578 151.805 463.149 150.077C464.692 143.537 465.544 136.782 465.544 129.898C465.544 122.929 464.669 116.081 463.086 109.459C468.586 108.16 474.185 106.581 479.883 104.705C483.037 112.491 484.795 120.993 484.795 129.898ZM455.089 129.898C455.089 136.072 454.313 142.13 452.909 147.987C444.239 146.457 434.058 145.285 422.725 145.027V114.74C432.169 114.483 442.27 113.515 452.857 111.599C454.297 117.522 455.089 123.652 455.089 129.898ZM412.271 192.748C400.204 183.955 391.041 171.941 385.674 158.276C394.975 156.69 403.881 155.894 412.271 155.657V192.748ZM422.725 192.992V155.647C432.77 155.898 441.857 156.905 449.699 158.207C444.285 172.034 434.986 184.163 422.725 192.992ZM422.725 104.157V66.8081C434.963 75.6276 444.255 87.7336 449.676 101.528C440.242 103.14 431.214 103.932 422.725 104.157ZM412.271 67.0526V104.154C402.361 103.883 393.396 102.882 385.644 101.597C391.005 87.9021 400.181 75.8654 412.271 67.0526ZM412.271 114.753V145.063C402.923 145.334 392.941 146.282 382.483 148.178C381.046 142.262 380.256 136.138 380.256 129.895C380.256 123.722 381.029 117.664 382.436 111.8C391.025 113.317 401.07 114.479 412.271 114.753ZM372.256 150.315C366.657 151.637 360.946 153.252 355.146 155.181C351.965 147.369 350.201 138.84 350.201 129.898C350.201 121.02 351.942 112.55 355.083 104.781C358.723 106.079 364.556 107.936 372.197 109.716C370.654 116.256 369.805 123.011 369.805 129.895C369.805 136.865 370.674 143.699 372.256 150.315ZM359.873 164.618C365.092 162.933 370.235 161.539 375.288 160.38C380.025 173.206 387.695 184.81 397.723 194.224C381.779 189.316 368.345 178.633 359.873 164.618ZM437.807 194.059C447.786 184.638 455.41 173.048 460.11 160.241C466.631 161.711 471.77 163.234 475.252 164.397C466.885 178.356 453.603 189.045 437.807 194.059ZM475.183 95.2814C470.066 96.923 465.022 98.2872 460.061 99.4268C455.354 86.6766 447.75 75.1321 437.811 65.7445C453.553 70.7389 466.809 81.3817 475.183 95.2814ZM397.727 65.5727C387.655 75.0231 379.962 86.6799 375.232 99.5655C368.527 98.056 363.275 96.4771 359.793 95.3144C368.263 81.2363 381.73 70.501 397.727 65.5727Z" fill="white"/>
</g>
</g>
</g>
</g>
</g>
</g>
</g>
<defs>
<clipPath id="clip0_0_5">
<rect width="834" height="475.38" fill="white" transform="translate(0.494537 0.557312)"/>
</clipPath>
<clipPath id="clip1_0_5">
<rect width="831.957" height="475.875" fill="white" transform="translate(1.51602 0.310013)"/>
</clipPath>
<clipPath id="clip2_0_5">
<rect width="831.957" height="475.875" fill="white" transform="translate(1.51602 0.310013)"/>
</clipPath>
<clipPath id="clip3_0_5">
<rect width="831.957" height="187.549" fill="white" transform="translate(1.51602 288.635)"/>
</clipPath>
<clipPath id="clip4_0_5">
<rect width="831.957" height="187.549" fill="white" transform="translate(1.51602 288.635)"/>
</clipPath>
<clipPath id="clip5_0_5">
<rect width="831.957" height="123.4" fill="white" transform="translate(1.51602 288.635)"/>
</clipPath>
<clipPath id="clip6_0_5">
<rect width="831.957" height="123.4" fill="white" transform="translate(1.51602 288.635)"/>
</clipPath>
<clipPath id="clip7_0_5">
<rect width="540.772" height="35.0182" fill="white" transform="translate(147.109 441.166)"/>
</clipPath>
<clipPath id="clip8_0_5">
<rect width="540.772" height="35.0182" fill="white" transform="translate(147.109 441.166)"/>
</clipPath>
<clipPath id="clip9_0_5">
<rect width="259.193" height="259.193" fill="white" transform="translate(287.898 0.310013)"/>
</clipPath>
<clipPath id="clip10_0_5">
<rect width="259.193" height="259.193" fill="white" transform="translate(287.898 0.310013)"/>
</clipPath>
<clipPath id="clip11_0_5">
<rect width="155.496" height="155.516" fill="white" transform="translate(339.746 52.1487)"/>
</clipPath>
<clipPath id="clip12_0_5">
<rect width="155.496" height="155.516" fill="white" transform="translate(339.746 52.1487)"/>
</clipPath>
</defs>
</svg>
